<svg xmlns="http://www.w3.org/2000/svg" viewBox="0 0 200 200" width="200" height="200">
  <defs>
    <linearGradient id="bg" x1="0%" y1="0%" x2="100%" y2="100%">
      <stop offset="0%" style="stop-color:#1a73e8;stop-opacity:1" />
      <stop offset="100%" style="stop-color:#0d47a1;stop-opacity:1" />
    </linearGradient>
    <linearGradient id="chart" x1="0%" y1="100%" x2="0%" y2="0%">
      <stop offset="0%" style="stop-color:#4caf50;stop-opacity:1" />
      <stop offset="100%" style="stop-color:#81c784;stop-opacity:1" />
    </linearGradient>
  </defs>

  <!-- Background circle -->
  <circle cx="100" cy="100" r="95" fill="url(#bg)" />

  <!-- Grid lines -->
  <g stroke="rgba(255,255,255,0.15)" stroke-width="0.5">
    <line x1="35" y1="60" x2="165" y2="60" />
    <line x1="35" y1="85" x2="165" y2="85" />
    <line x1="35" y1="110" x2="165" y2="110" />
    <line x1="35" y1="135" x2="165" y2="135" />
  </g>

  <!-- Candlestick chart bars -->
  <g fill="url(#chart)">
    <!-- Bar 1 -->
    <rect x="45" y="100" width="8" height="45" rx="1" />
    <line x1="49" y1="90" x2="49" y2="100" stroke="#81c784" stroke-width="2" />
    <!-- Bar 2 (down) -->
    <rect x="60" y="85" width="8" height="50" rx="1" fill="#ef5350" />
    <line x1="64" y1="75" x2="64" y2="85" stroke="#ef5350" stroke-width="2" />
    <!-- Bar 3 -->
    <rect x="75" y="70" width="8" height="55" rx="1" />
    <line x1="79" y1="60" x2="79" y2="70" stroke="#81c784" stroke-width="2" />
    <!-- Bar 4 -->
    <rect x="90" y="80" width="8" height="48" rx="1" />
    <line x1="94" y1="68" x2="94" y2="80" stroke="#81c784" stroke-width="2" />
    <!-- Bar 5 (down) -->
    <rect x="105" y="90" width="8" height="42" rx="1" fill="#ef5350" />
    <line x1="109" y1="82" x2="109" y2="90" stroke="#ef5350" stroke-width="2" />
    <!-- Bar 6 -->
    <rect x="120" y="65" width="8" height="58" rx="1" />
    <line x1="124" y1="55" x2="124" y2="65" stroke="#81c784" stroke-width="2" />
    <!-- Bar 7 -->
    <rect x="135" y="55" width="8" height="62" rx="1" />
    <line x1="139" y1="48" x2="139" y2="55" stroke="#81c784" stroke-width="2" />
  </g>

  <!-- Trend line -->
  <polyline
    points="49,105 64,110 79,95 94,100 109,108 124,85 139,75"
    fill="none"
    stroke="#ffd54f"
    stroke-width="2.5"
    stroke-linecap="round"
    stroke-linejoin="round"
  />

  <!-- AI brain icon (top right) -->
  <g transform="translate(140, 35)" fill="white" opacity="0.9">
    <circle cx="12" cy="12" r="11" fill="none" stroke="white" stroke-width="1.5" />
    <path d="M8,8 Q12,4 16,8 Q20,12 16,16 Q12,20 8,16 Q4,12 8,8" fill="none" stroke="white" stroke-width="1.2" />
    <circle cx="12" cy="12" r="2" fill="white" />
  </g>

  <!-- Text -->
  <text x="100" y="175" text-anchor="middle" font-family="Arial, sans-serif" font-size="18" font-weight="bold" fill="white">
    FinAssistant
  </text>
  <text x="100" y="192" text-anchor="middle" font-family="Arial, sans-serif" font-size="10" fill="rgba(255,255,255,0.8)">
    AI-Powered Financial Analysis
  </text>
</svg>
